<?xml version="1.0" encoding="UTF-8" standalone="no"?>
<svg
   xmlns:dc="http://purl.org/dc/elements/1.1/"
   xmlns:cc="http://creativecommons.org/ns#"
   xmlns:rdf="http://www.w3.org/1999/02/22-rdf-syntax-ns#"
   xmlns:svg="http://www.w3.org/2000/svg"
   xmlns="http://www.w3.org/2000/svg"
   xmlns:sodipodi="http://sodipodi.sourceforge.net/DTD/sodipodi-0.dtd"
   xmlns:inkscape="http://www.inkscape.org/namespaces/inkscape"
   version="1.0"
   width="224.00746pt"
   height="232.99951pt"
   viewBox="0 0 224.00746 232.99951"
   preserveAspectRatio="xMidYMid meet"
   id="svg14"
   sodipodi:docname="gurantee.svg"
   inkscape:version="0.92.4 (5da689c313, 2019-01-14)">
  <defs
     id="defs18" />
  <sodipodi:namedview
     pagecolor="#ffffff"
     bordercolor="#666666"
     borderopacity="1"
     objecttolerance="10"
     gridtolerance="10"
     guidetolerance="10"
     inkscape:pageopacity="0"
     inkscape:pageshadow="2"
     inkscape:window-width="1920"
     inkscape:window-height="1001"
     id="namedview16"
     showgrid="false"
     inkscape:zoom="0.69140625"
     inkscape:cx="-566.31277"
     inkscape:cy="209.94781"
     inkscape:window-x="-9"
     inkscape:window-y="-9"
     inkscape:window-maximized="1"
     inkscape:current-layer="svg14" />
  <metadata
     id="metadata2">
Created by potrace 1.15, written by Peter Selinger 2001-2017
<rdf:RDF>
  <cc:Work
     rdf:about="">
    <dc:format>image/svg+xml</dc:format>
    <dc:type
       rdf:resource="http://purl.org/dc/dcmitype/StillImage" />
    <dc:title></dc:title>
  </cc:Work>
</rdf:RDF>
</metadata>
  <g
     transform="matrix(0.07917745,0,0,-0.07917745,-90.145978,325.63751)"
     id="g12"
     style="fill:#28a745;fill-opacity:1;stroke:none">
    <path
       style="fill:#28a745;fill-opacity:1;stroke-width:0.13333334"
       d="M 220.66602,156 214,159.19922 c -8.66667,4 -17.46667,13.86653 -20,22.5332 -1.73333,5.86667 -2,27.86758 -2,160.26758 0,171.86667 -0.66758,160.39948 9.73242,172.13281 3.06667,3.46667 8.40091,7.60065 12.26758,9.33399 l 6.66602,3.19922 H 341.33398 462 l 6.66602,-3.19922 c 8.66666,-4 17.46666,-13.86654 20,-22.53321 1.73333,-5.73333 2,-21.60104 2,-103.73437 0,-36.62437 0.0398,-59.81819 -0.23829,-74.76367 V 265.75 c 0.19231,-3.04844 0.23829,-7.46496 0.23829,-14.2832 v -19.33399 l -7.06641,-7.86523 c -3.73333,-4.4 -19.46693,-21.60143 -34.93359,-38.13477 l -28,-30.13281 h -100 z m 100.13476,14.66602 h 88.5332 v 22.26757 c 0,24.93334 1.06615,28.9323 10.13282,38.26563 9.06666,9.33333 13.46627,10.66784 35.59961,11.20117 l 19.59961,0.5332 v 13.86719 106.28125 1.17969 c -0.005,9.95589 0,21.2046 0,34.27148 v 98.40039 l -3.06641,4.40039 c -1.6,2.53334 -5.06628,5.73256 -7.59961,7.19922 -4.53333,2.8 -6.39909,2.79922 -117.73242,3.19922 -73.86667,0.26667 -115.73464,-0.13307 -120.66797,-1.0664 -7.73333,-1.46667 -12.39909,-4.66693 -15.73242,-10.9336 -2.8,-5.33333 -2.8,-311.46549 0,-316.79883 3.2,-6.13333 7.9987,-9.46692 15.33203,-10.93359 4.4,-0.8 41.60156,-1.33398 95.60156,-1.33398 z m 103.06641,12.66796 5.19922,5.59961 c 2.93333,3.06667 12.00091,12.93243 20.26757,21.73243 l 14.9336,16 h -12.13477 c -22.13333,0 -27.19857,-5.19935 -27.86523,-28.66602 z"
       transform="matrix(7.4999998,0,0,-7.4999998,0,5120)"
       id="path4"
       inkscape:connector-curvature="0" />
    <path
       d="m 2093,3500 c -94,-19 -180,-87 -224,-176 -19,-39 -24,-66 -25,-134 -1,-65 -11,-122 -44,-244 -33,-127 -40,-164 -31,-182 14,-32 47,-38 100,-19 l 44,15 34,-40 c 63,-73 102,-50 136,81 l 22,84 h 44 44 l 24,-90 c 33,-127 65,-145 136,-75 l 40,41 42,-17 c 50,-18 82,-12 96,20 8,16 0,56 -32,171 -36,125 -43,166 -44,245 -1,82 -5,102 -27,145 -67,128 -206,201 -335,175 z m 143,-135 c 65,-33 97,-80 102,-153 11,-167 -173,-266 -306,-165 -70,53 -92,156 -51,240 45,94 156,128 255,78 z"
       id="path6"
       style="fill:#28a745;fill-opacity:1"
       inkscape:connector-curvature="0" />
    <path
       d="m 1777,2172 c -19,-21 -21,-45 -7,-73 10,-18 29,-19 678,-19 506,0 671,3 680,12 16,16 16,70 0,86 -9,9 -172,12 -673,12 -629,0 -663,-1 -678,-18 z"
       id="path8"
       style="fill:#28a745;fill-opacity:1"
       inkscape:connector-curvature="0" />
    <path
       d="m 1780,1800 c -11,-11 -20,-29 -20,-40 0,-11 9,-29 20,-40 19,-19 33,-20 408,-20 364,0 390,1 405,18 22,24 21,65 -1,85 -17,15 -59,17 -405,17 -374,0 -388,-1 -407,-20 z"
       id="path10"
       style="fill:#28a745;fill-opacity:1"
       inkscape:connector-curvature="0" />
  </g>
</svg>
