<?xml version="1.0" encoding="UTF-8" standalone="no"?>
<svg
   xmlns:dc="http://purl.org/dc/elements/1.1/"
   xmlns:cc="http://creativecommons.org/ns#"
   xmlns:rdf="http://www.w3.org/1999/02/22-rdf-syntax-ns#"
   xmlns:svg="http://www.w3.org/2000/svg"
   xmlns="http://www.w3.org/2000/svg"
   xmlns:sodipodi="http://sodipodi.sourceforge.net/DTD/sodipodi-0.dtd"
   xmlns:inkscape="http://www.inkscape.org/namespaces/inkscape"
   version="1.0"
   width="980.000000pt"
   height="980.000000pt"
   viewBox="0 0 980.000000 980.000000"
   preserveAspectRatio="xMidYMid meet"
   id="svg10"
   sodipodi:docname="donation-clipart-cash-payment-18-transparent.svg"
   inkscape:version="0.92.4 (5da689c313, 2019-01-14)">
  <defs
     id="defs14" />
  <sodipodi:namedview
     pagecolor="#ffffff"
     bordercolor="#666666"
     borderopacity="1"
     objecttolerance="10"
     gridtolerance="10"
     guidetolerance="10"
     inkscape:pageopacity="0"
     inkscape:pageshadow="2"
     inkscape:window-width="1920"
     inkscape:window-height="1001"
     id="namedview12"
     showgrid="false"
     inkscape:zoom="0.72244898"
     inkscape:cx="1260.0659"
     inkscape:cy="956.27148"
     inkscape:window-x="-9"
     inkscape:window-y="-9"
     inkscape:window-maximized="1"
     inkscape:current-layer="svg10" />
  <metadata
     id="metadata2">
Created by potrace 1.15, written by Peter Selinger 2001-2017
<rdf:RDF>
  <cc:Work
     rdf:about="">
    <dc:format>image/svg+xml</dc:format>
    <dc:type
       rdf:resource="http://purl.org/dc/dcmitype/StillImage" />
  </cc:Work>
</rdf:RDF>
</metadata>
  <g
     transform="translate(0.000000,980.000000) scale(0.100000,-0.100000)"
     fill="#000000"
     stroke="none"
     id="g8">
    <path
       d="M4510 9793 c-314 -29 -535 -66 -807 -133 -1599 -396 -2863 -1533 -3416 -3070 -118 -328 -223 -773 -262 -1110 -22 -185 -31 -746 -16 -965 32 -476 148 -987 328 -1445 310 -791 822 -1481 1505 -2027 267 -214 474 -342 836 -521 286 -142 428 -201 657 -277 341 -114 669 -185 1020 -221 213 -23 810 -26 1010 -6 526 53 929 148 1369 322 466 184 981 493 1351 809 225 192 549 540 753 809 993 1308 1241 3188 626 4752 -73 185 -238 526 -338 699 -258 445 -592 843 -1026 1224 -608 533 -1395 910 -2260 1081 -225 45 -378 63 -620 76 -179 9 -627 11 -710 3z m880 -407 c894 -118 1643 -432 2322 -974 146 -117 506 -470 640 -627 491 -579 826 -1277 977 -2040 47 -237 60 -343 73 -604 19 -394 -3 -748 -68 -1071 -156 -780 -490 -1473 -1008 -2093 l-90 -108 -375 375 -375 375 191 1144 191 1144 95 119 c260 321 377 632 377 999 0 167 -16 275 -65 432 -149 478 -536 872 -1012 1032 -300 100 -636 102 -923 4 -464 -158 -877 -574 -1021 -1029 -17 -54 -38 -119 -46 -143 l-16 -43 -51 6 c-58 8 -920 150 -1366 226 l-295 50 -835 836 -835 836 65 62 c78 73 257 210 435 332 639 438 1378 703 2160 773 159 15 709 6 855 -13z m-3275 -2018 c517 -519 644 -652 633 -664 -5 -5 -374 57 -572 96 -170 34 -256 21 -319 -49 -50 -55 -48 -46 -371 -1986 -264 -1584 -274 -1660 -242 -1724 32 -62 75 -86 192 -109 624 -123 5177 -882 5720 -953 112 -15 133 -8 200 63 l47 50 264 -263 264 -264 -43 -38 c-371 -327 -864 -630 -1323 -815 -552 -221 -1075 -322 -1670 -323 -416 0 -748 42 -1140 146 -579 152 -1165 447 -1641 825 -262 208 -626 581 -824 845 -889 1186 -1140 2714 -674 4113 130 390 280 693 529 1067 165 247 386 525 418 525 7 0 255 -244 552 -542z m4989 -257 c96 -26 261 -103 358 -168 218 -145 395 -425 440 -694 19 -117 14 -386 -9 -499 -34 -161 -95 -292 -193 -415 -62 -78 -212 -223 -273 -264 -170 -115 -438 -181 -686 -168 -337 18 -564 120 -777 350 -84 91 -136 167 -185 272 -101 215 -131 482 -84 734 74 389 357 708 740 835 119 39 179 45 395 42 159 -3 209 -8 274 -25z m-4724 -777 c133 -19 264 -44 280 -54 8 -5 3 -23 -20 -64 -77 -136 -240 -267 -388 -311 -60 -18 -152 -29 -152 -19 0 11 67 406 76 446 6 31 -2 31 204 2z m858 -146 c24 -6 67 -29 96 -52 29 -22 252 -237 495 -477 l443 -437 -42 -62 c-61 -90 -98 -175 -110 -258 -39 -250 121 -470 504 -694 238 -139 281 -186 258 -275 -28 -104 -77 -137 -202 -138 -142 0 -229 43 -395 194 -110 100 -147 121 -218 121 -65 0 -128 -36 -170 -97 -37 -54 -44 -102 -22 -158 40 -105 145 -211 346 -346 l88 -59 -2 -88 c-2 -81 0 -92 25 -130 15 -22 48 -53 73 -68 127 -74 255 -19 304 129 12 36 27 70 34 75 7 5 47 20 90 34 118 39 221 102 307 188 175 175 218 388 116 588 -14 28 -22 52 -17 52 11 0 1164 -1134 1169 -1150 2 -6 -32 -50 -76 -98 -111 -121 -177 -213 -228 -314 -34 -67 -49 -88 -64 -88 -17 0 -1830 301 -2585 430 -578 98 -823 147 -851 171 -7 6 -25 63 -40 127 -30 133 -79 267 -130 361 -106 193 -311 398 -505 505 -105 58 -106 59 -87 169 9 51 54 317 99 592 45 275 85 503 88 507 3 3 48 13 98 22 113 19 262 66 368 116 209 98 434 315 558 538 l52 93 45 -6 c25 -4 64 -11 88 -17z m1096 -188 c303 -51 725 -125 834 -147 l82 -16 15 -51 c7 -28 25 -94 39 -147 134 -516 599 -975 1131 -1117 243 -65 591 -51 844 34 56 20 104 34 106 32 3 -4 -191 -1174 -198 -1192 -3 -8 -32 -15 -75 -19 -38 -4 -125 -21 -192 -38 l-122 -32 -721 721 -721 721 21 23 c42 46 55 87 51 158 -7 122 -79 230 -247 370 -54 46 -54 46 -62 119 -17 158 -126 247 -258 211 -58 -15 -125 -79 -147 -138 -10 -26 -21 -51 -25 -56 -5 -6 -108 89 -240 220 -232 231 -378 384 -364 384 5 0 116 -18 249 -40z m454 -1303 c117 -118 212 -217 212 -221 0 -5 -15 2 -32 13 -18 12 -98 61 -177 109 -225 136 -276 192 -252 273 6 21 17 39 24 39 7 0 108 -96 225 -213z m-2975 -923 c99 -50 206 -164 275 -294 67 -124 94 -250 54 -250 -55 0 -446 80 -460 95 -6 6 39 292 64 398 9 37 20 67 25 67 6 0 24 -7 42 -16z m5024 -1121 c119 -118 193 -204 193 -225 0 -4 -15 -8 -32 -8 -55 0 -489 77 -501 89 -14 14 11 67 68 140 64 83 111 131 128 131 8 0 73 -57 144 -127z"
       id="path4"
       style="fill:#28a745;fill-opacity:1" />
    <path
       d="M6735 6814 c-46 -23 -103 -84 -116 -121 -7 -21 -31 -48 -67 -77 -116 -89 -169 -163 -198 -278 -39 -150 20 -278 191 -417 l40 -32 -43 6 c-121 16 -235 -86 -235 -210 0 -88 39 -136 194 -238 56 -37 103 -76 116 -97 58 -92 99 -125 168 -136 86 -12 183 43 227 129 11 23 55 77 98 122 99 104 145 175 166 255 35 138 -8 255 -137 372 l-80 73 58 26 c32 15 68 37 80 50 53 58 68 160 34 234 -17 38 -40 61 -165 168 -31 27 -56 54 -56 61 0 21 -70 87 -114 107 -50 23 -121 24 -161 3z"
       id="path6"
       style="fill:#28a745;fill-opacity:1" />
  </g>
</svg>
